<?xml version="1.0" encoding="UTF-8"?>
<svg width="27px" height="35px" viewBox="0 0 27 35" version="1.1" xmlns="http://www.w3.org/2000/svg" xmlns:xlink="http://www.w3.org/1999/xlink">
    <title>Path</title>
    <g id="Page-1" stroke="none" stroke-width="1" fill="none" fill-rule="evenodd" stroke-linecap="round" stroke-linejoin="round">
        <g id="Desktop-HD" transform="translate(-1245.000000, -12680.000000)" stroke="#FFFFFF">
            <g id="Group-49" transform="translate(970.000000, 12681.000000)">
                <g id="Group-63" transform="translate(0.000000, -0.000000)">
                    <path d="M289.619083,-3.19596201e-13 C280.726667,-3.19596201e-13 276.25,6.375 276.25,11.6903333 C276.25,14.9104167 277.46975,17.782 280.082083,18.84025 C280.265583,18.9375066 280.484752,18.9401723 280.670563,18.8474074 C280.856374,18.7546426 280.985957,18.5778645 281.0185,18.37275 C281.106333,18.0455 281.31175,17.21675 281.402417,16.8696667 C281.551158,16.5006976 281.442003,16.0778657 281.13325,15.827 C280.280709,14.7994565 279.840436,13.4917626 279.897917,12.1578333 C279.86851,9.72864628 280.837397,7.39384983 282.578093,5.6992145 C284.31879,4.00457916 286.678725,3.09864064 289.10625,3.19316667 C294.132583,3.19316667 296.897917,6.2645 296.897917,10.36575 C296.897917,15.7604167 294.508,20.3164167 290.962083,20.3164167 C290.045111,20.3620736 289.160773,19.9703809 288.578389,19.2606264 C287.996004,18.5508719 287.784517,17.6070761 288.008333,16.7166667 C288.575,14.34375 289.661583,11.7880833 289.661583,10.07675 C289.749199,9.35799821 289.521839,8.63645942 289.038001,8.09777501 C288.554162,7.5590906 287.861083,7.25585392 287.137083,7.26608333 C285.135333,7.26608333 283.527417,9.33583333 283.527417,12.1110833 C283.514653,13.1292388 283.718433,14.1384803 284.12525,15.0719167 L281.716917,25.2719167 C281.293186,27.6219489 281.274021,30.0270973 281.66025,32.3835833 C281.676277,32.4820301 281.749433,32.5614524 281.846234,32.5854984 C281.943035,32.6095445 282.044852,32.5735869 282.105083,32.4940833 C283.581943,30.6656749 284.725624,28.5917046 285.483833,26.367 C285.713333,25.5325833 286.799917,21.2216667 286.799917,21.2216667 C287.828733,22.7250531 289.550468,23.603261 291.3715,23.5535 C297.38525,23.5464167 301.466667,18.0625 301.466667,10.72275 C301.466667,5.17225 296.766167,-3.19596201e-13 289.619083,-3.19596201e-13 Z" id="Path"></path>
                </g>
            </g>
        </g>
    </g>
</svg>