<?xml version="1.0" encoding="UTF-8"?>
<svg width="33px" height="34px" viewBox="0 0 33 34" version="1.1" xmlns="http://www.w3.org/2000/svg" xmlns:xlink="http://www.w3.org/1999/xlink">
    <title>Group 40</title>
    <g id="Page-1" stroke="none" stroke-width="1" fill="none" fill-rule="evenodd" stroke-linecap="round" stroke-linejoin="round">
        <g id="Desktop-HD" transform="translate(-1173.000000, -12681.000000)" stroke="#FFFFFF">
            <g id="Group-49" transform="translate(970.000000, 12681.000000)">
                <g id="Group-63" transform="translate(0.000000, -0.000000)">
                    <g id="Group-40" transform="translate(204.000000, 1.416667)">
                        <rect id="Rectangle" x="0" y="16.2916667" width="31.1666667" height="15.5833333" rx="4"></rect>
                        <polyline id="Path" points="4.25 2.88139882e-13 8.5 5.66666667 8.50141667 12.0445"></polyline>
                        <polyline id="Path" points="12.75 2.88139882e-13 8.5 5.66666667 8.50141667 12.0445"></polyline>
                        <path d="M17,9.91666667 C17,11.0902717 16.0486051,12.0416667 14.875,12.0416667 C13.7013949,12.0416667 12.75,11.0902717 12.75,9.91666667 L12.75,5.66666667 C12.75,4.49306157 13.7013949,3.54166667 14.875,3.54166667 C16.0486051,3.54166667 17,4.49306157 17,5.66666667 L17,9.91666667 Z" id="Path"></path>
                        <path d="M25.5,3.54166667 L25.5,9.20833333 C25.5,10.7731401 24.2314735,12.0416667 22.6666667,12.0416667 C21.1018599,12.0416667 19.8333333,10.7731401 19.8333333,9.20833333 L19.8333333,3.54166667" id="Path"></path>
                        <line x1="25.5" y1="3.53741667" x2="25.5" y2="12.0416667" id="Path"></line>
                        <line x1="14.1666667" y1="21.9540833" x2="14.1666667" y2="27.625" id="Path"></line>
                        <line x1="4.22025" y1="20.5416667" x2="9.94641667" y2="20.5416667" id="Path"></line>
                        <line x1="7.08333333" y1="20.5416667" x2="7.08333333" y2="27.5938333" id="Path"></line>
                        <line x1="17" y1="19.125" x2="17" y2="27.5938333" id="Path"></line>
                        <path d="M19.8333333,26.2083333 C19.8333333,26.9907367 19.1990701,27.625 18.4166667,27.625 C17.6342633,27.625 17,26.9907367 17,26.2083333 L17,23.375 C17,22.5925966 17.6342633,21.9583333 18.4166667,21.9583333 C19.1990701,21.9583333 19.8333333,22.5925966 19.8333333,23.375 L19.8333333,26.2083333 Z" id="Path"></path>
                        <path d="M11.3333333,21.9583333 L11.3333333,26.2083333 C11.3333333,26.9907367 11.9675966,27.625 12.75,27.625 C13.5324034,27.625 14.1666667,26.9907367 14.1666667,26.2083333 L14.1666667,21.9583333" id="Path"></path>
                        <path d="M25.7436667,26.3854167 C25.7070212,26.7550863 25.523461,27.0945558 25.2341899,27.3276241 C24.9449189,27.5606923 24.5741704,27.6678344 24.2051667,27.625 C23.3662879,27.5525048 22.7095319,26.8721636 22.6666667,26.03125 L22.6666667,23.375 C22.6666667,22.5925966 23.3009299,21.9583333 24.0833333,21.9583333 C24.8657367,21.9583333 25.5,22.5925966 25.5,23.375 L25.5,24.7916667 L22.6666667,24.7916667" id="Path"></path>
                    </g>
                </g>
            </g>
        </g>
    </g>
</svg>