<?xml version="1.0" encoding="UTF-8"?>
<svg width="33px" height="28px" viewBox="0 0 33 28" version="1.1" xmlns="http://www.w3.org/2000/svg" xmlns:xlink="http://www.w3.org/1999/xlink">
    <title>Path</title>
    <g id="Page-1" stroke="none" stroke-width="1" fill="none" fill-rule="evenodd" stroke-linecap="round" stroke-linejoin="round">
        <g id="Desktop-HD" transform="translate(-1027.000000, -12684.000000)" stroke="#FFFFFF">
            <g id="Group-49" transform="translate(970.000000, 12681.000000)">
                <g id="Group-63" transform="translate(0.000000, -0.000000)">
                    <path d="M89.25,8.50608918 L86.4166667,7.79775584 L87.8333333,4.96442251 L84.3426667,5.95608918 C82.4903815,4.22805176 79.7879001,3.76698326 77.4674348,4.78311057 C75.1469695,5.79923788 73.6529828,8.09793174 73.6666667,10.6310892 L73.6666667,12.0477558 C68.6530833,13.0819225 64.2685,10.3477558 60.2083333,5.67275584 C59.5,9.45053362 60.2083333,12.283867 62.3333333,14.1727558 L58.0833333,13.4644225 C58.6570833,16.3955058 60.0128333,18.7060892 63.75,19.1310892 L60.2083333,20.5477558 C61.625,23.3810892 63.8435,23.8202558 67.2916667,24.0894225 C64.6098029,26.0056559 61.3785411,26.9998903 58.0833333,26.9227558 C76.1529167,34.9538392 86.4166667,23.1487558 86.4166667,12.7560892 L86.4166667,10.8747558 L89.25,8.50608918 Z" id="Path"></path>
                </g>
            </g>
        </g>
    </g>
</svg>