<?xml version="1.0" encoding="UTF-8"?>
<svg width="19px" height="35px" viewBox="0 0 19 35" version="1.1" xmlns="http://www.w3.org/2000/svg" xmlns:xlink="http://www.w3.org/1999/xlink">
    <title>Path</title>
    <g id="Page-1" stroke="none" stroke-width="1" fill="none" fill-rule="evenodd" stroke-linecap="round" stroke-linejoin="round">
        <g id="Desktop-HD" transform="translate(-969.000000, -12681.000000)" stroke="#FFFFFF">
            <g id="Group-49" transform="translate(970.000000, 12681.000000)">
                <g id="Group-63" transform="translate(0.000000, -0.000000)">
                    <path d="M17.3796667,11.3333333 L11.3333333,11.3333333 L11.3333333,8.64166667 C11.2789395,8.23613545 11.4077079,7.82741787 11.6847343,7.52630223 C11.9617607,7.22518658 12.3583495,7.06286369 12.767,7.08333333 C13.3591667,7.08333333 17,7.0975 17,7.0975 L17,1.41666667 L10.86725,1.41666667 C5.304,1.41666667 4.25,5.62983333 4.25,8.29458333 L4.25,11.3333333 L2.01320442e-14,11.3333333 L2.01320442e-14,17 L4.25,17 L4.25,34 L11.3333333,34 L11.3333333,17 L16.7889167,17 L17.3796667,11.3333333 Z" id="Path"></path>
                </g>
            </g>
        </g>
    </g>
</svg>